<?xml version="1.0" encoding="UTF-8" standalone="no"?>
<!DOCTYPE svg PUBLIC "-//W3C//DTD SVG 1.1//EN"
 "http://www.w3.org/Graphics/SVG/1.1/DTD/svg11.dtd">
<!-- Generated by graphviz version 2.43.0 (0)
 -->
<!-- Title: COUNTERMOD6 Pages: 1 -->
<svg width="1564pt" height="389pt"
 viewBox="0.00 0.00 1563.97 389.00" xmlns="http://www.w3.org/2000/svg" xmlns:xlink="http://www.w3.org/1999/xlink">
<g id="graph0" class="graph" transform="scale(1 1) rotate(0) translate(4 385)">
<title>COUNTERMOD6</title>
<polygon fill="white" stroke="transparent" points="-4,4 -4,-385 1559.97,-385 1559.97,4 -4,4"/>
<text text-anchor="middle" x="777.99" y="-7.8" font-family="Times,serif" font-size="14.00">COUNTERMOD6</text>
<!-- n1 -->
<g id="node1" class="node">
<title>n1</title>
<polygon fill="none" stroke="black" points="359.9,-159 289.35,-141 359.9,-123 430.45,-141 359.9,-159"/>
<text text-anchor="middle" x="359.9" y="-137.3" font-family="Times,serif" font-size="14.00">BLANK1</text>
</g>
<!-- n2 -->
<g id="node2" class="node">
<title>n2</title>
<polygon fill="none" stroke="black" points="958.44,-250 887.89,-232 958.44,-214 1028.99,-232 958.44,-250"/>
<text text-anchor="middle" x="958.44" y="-228.3" font-family="Times,serif" font-size="14.00">BLANK2</text>
</g>
<!-- n3 -->
<g id="node3" class="node">
<title>n3</title>
<polygon fill="none" stroke="black" points="66.19,-297.54 66.19,-312.46 46.79,-323 19.34,-323 -0.06,-312.46 -0.06,-297.54 19.34,-287 46.79,-287 66.19,-297.54"/>
<text text-anchor="middle" x="33.06" y="-301.3" font-family="Times,serif" font-size="14.00">CLK</text>
</g>
<!-- c20 -->
<g id="node15" class="node">
<title>c20</title>
<polygon fill="none" stroke="black" points="102.13,-122 102.13,-214 253.13,-214 253.13,-122 102.13,-122"/>
<text text-anchor="middle" x="125.63" y="-198.8" font-family="Times,serif" font-size="14.00">CLK</text>
<polyline fill="none" stroke="black" points="102.13,-191 149.13,-191 "/>
<text text-anchor="middle" x="125.63" y="-175.8" font-family="Times,serif" font-size="14.00">J</text>
<polyline fill="none" stroke="black" points="102.13,-168 149.13,-168 "/>
<text text-anchor="middle" x="125.63" y="-152.8" font-family="Times,serif" font-size="14.00">K</text>
<polyline fill="none" stroke="black" points="102.13,-145 149.13,-145 "/>
<text text-anchor="middle" x="125.63" y="-129.8" font-family="Times,serif" font-size="14.00">RST</text>
<polyline fill="none" stroke="black" points="149.13,-122 149.13,-214 "/>
<text text-anchor="middle" x="175.13" y="-171.8" font-family="Times,serif" font-size="14.00">F1</text>
<text text-anchor="middle" x="175.13" y="-156.8" font-family="Times,serif" font-size="14.00">JKFF</text>
<polyline fill="none" stroke="black" points="201.13,-122 201.13,-214 "/>
<text text-anchor="middle" x="227.13" y="-187.3" font-family="Times,serif" font-size="14.00">Q</text>
<polyline fill="none" stroke="black" points="201.13,-168 253.13,-168 "/>
<text text-anchor="middle" x="227.13" y="-141.3" font-family="Times,serif" font-size="14.00">Qbar</text>
</g>
<!-- n3&#45;&gt;c20 -->
<g id="edge6" class="edge">
<title>n3:e&#45;&gt;c20:w</title>
<path fill="none" stroke="black" d="M66.13,-305C110.07,-305 63.59,-219.78 91.99,-205.13"/>
<polygon fill="black" stroke="black" points="93.06,-208.48 102.13,-203 91.62,-201.63 93.06,-208.48"/>
</g>
<!-- c21 -->
<g id="node16" class="node">
<title>c21</title>
<polygon fill="none" stroke="black" points="700.67,-217 700.67,-309 851.67,-309 851.67,-217 700.67,-217"/>
<text text-anchor="middle" x="724.17" y="-293.8" font-family="Times,serif" font-size="14.00">CLK</text>
<polyline fill="none" stroke="black" points="700.67,-286 747.67,-286 "/>
<text text-anchor="middle" x="724.17" y="-270.8" font-family="Times,serif" font-size="14.00">J</text>
<polyline fill="none" stroke="black" points="700.67,-263 747.67,-263 "/>
<text text-anchor="middle" x="724.17" y="-247.8" font-family="Times,serif" font-size="14.00">K</text>
<polyline fill="none" stroke="black" points="700.67,-240 747.67,-240 "/>
<text text-anchor="middle" x="724.17" y="-224.8" font-family="Times,serif" font-size="14.00">RST</text>
<polyline fill="none" stroke="black" points="747.67,-217 747.67,-309 "/>
<text text-anchor="middle" x="773.67" y="-266.8" font-family="Times,serif" font-size="14.00">F2</text>
<text text-anchor="middle" x="773.67" y="-251.8" font-family="Times,serif" font-size="14.00">JKFF</text>
<polyline fill="none" stroke="black" points="799.67,-217 799.67,-309 "/>
<text text-anchor="middle" x="825.67" y="-282.3" font-family="Times,serif" font-size="14.00">Q</text>
<polyline fill="none" stroke="black" points="799.67,-263 851.67,-263 "/>
<text text-anchor="middle" x="825.67" y="-236.3" font-family="Times,serif" font-size="14.00">Qbar</text>
</g>
<!-- n3&#45;&gt;c21 -->
<g id="edge7" class="edge">
<title>n3:e&#45;&gt;c21:w</title>
<path fill="none" stroke="black" d="M66.13,-305C83.3,-305 85.42,-315.05 102.13,-319 213.68,-345.36 244.28,-343 358.9,-343 358.9,-343 358.9,-343 520.18,-343 584.95,-343 604.47,-347.91 664.67,-324 679.14,-318.25 680.9,-305.39 690.69,-300.22"/>
<polygon fill="black" stroke="black" points="691.66,-303.58 700.67,-298 690.15,-296.75 691.66,-303.58"/>
</g>
<!-- c22 -->
<g id="node17" class="node">
<title>c22</title>
<polygon fill="none" stroke="black" points="1299.2,-149 1299.2,-241 1450.2,-241 1450.2,-149 1299.2,-149"/>
<text text-anchor="middle" x="1322.7" y="-225.8" font-family="Times,serif" font-size="14.00">CLK</text>
<polyline fill="none" stroke="black" points="1299.2,-218 1346.2,-218 "/>
<text text-anchor="middle" x="1322.7" y="-202.8" font-family="Times,serif" font-size="14.00">J</text>
<polyline fill="none" stroke="black" points="1299.2,-195 1346.2,-195 "/>
<text text-anchor="middle" x="1322.7" y="-179.8" font-family="Times,serif" font-size="14.00">K</text>
<polyline fill="none" stroke="black" points="1299.2,-172 1346.2,-172 "/>
<text text-anchor="middle" x="1322.7" y="-156.8" font-family="Times,serif" font-size="14.00">RST</text>
<polyline fill="none" stroke="black" points="1346.2,-149 1346.2,-241 "/>
<text text-anchor="middle" x="1372.2" y="-198.8" font-family="Times,serif" font-size="14.00">F3</text>
<text text-anchor="middle" x="1372.2" y="-183.8" font-family="Times,serif" font-size="14.00">JKFF</text>
<polyline fill="none" stroke="black" points="1398.2,-149 1398.2,-241 "/>
<text text-anchor="middle" x="1424.2" y="-214.3" font-family="Times,serif" font-size="14.00">Q</text>
<polyline fill="none" stroke="black" points="1398.2,-195 1450.2,-195 "/>
<text text-anchor="middle" x="1424.2" y="-168.3" font-family="Times,serif" font-size="14.00">Qbar</text>
</g>
<!-- n3&#45;&gt;c22 -->
<g id="edge8" class="edge">
<title>n3:e&#45;&gt;c22:w</title>
<path fill="none" stroke="black" d="M66.13,-305C383.06,-305 458.23,-381 775.17,-381 775.17,-381 775.17,-381 1118.72,-381 1219.73,-381 1196.42,-240.15 1288.94,-230.52"/>
<polygon fill="black" stroke="black" points="1289.39,-234 1299.2,-230 1289.04,-227.01 1289.39,-234"/>
</g>
<!-- n4 -->
<g id="node4" class="node">
<title>n4</title>
<polygon fill="none" stroke="black" points="636.17,-315 607.68,-297 636.17,-279 664.66,-297 636.17,-315"/>
<text text-anchor="middle" x="636.17" y="-293.3" font-family="Times,serif" font-size="14.00">J1</text>
</g>
<!-- n4&#45;&gt;c21 -->
<g id="edge10" class="edge">
<title>n4:e&#45;&gt;c21:w</title>
<path fill="none" stroke="black" d="M664.67,-297C679.32,-297 681.6,-283.57 690.84,-277.7"/>
<polygon fill="black" stroke="black" points="691.95,-281.02 700.67,-275 690.1,-274.27 691.95,-281.02"/>
</g>
<!-- n5 -->
<g id="node5" class="node">
<title>n5</title>
<polygon fill="none" stroke="black" points="1234.71,-225 1206.22,-207 1234.71,-189 1263.2,-207 1234.71,-225"/>
<text text-anchor="middle" x="1234.71" y="-203.3" font-family="Times,serif" font-size="14.00">J2</text>
</g>
<!-- n5&#45;&gt;c22 -->
<g id="edge12" class="edge">
<title>n5:e&#45;&gt;c22:w</title>
<path fill="none" stroke="black" d="M1263.2,-207C1275.2,-207 1280.45,-207 1289.08,-207"/>
<polygon fill="black" stroke="black" points="1289.2,-210.5 1299.2,-207 1289.2,-203.5 1289.2,-210.5"/>
</g>
<!-- n6 -->
<g id="node6" class="node">
<title>n6</title>
<polygon fill="none" stroke="black" points="1514.7,-160 1486.21,-142 1514.7,-124 1543.19,-142 1514.7,-160"/>
<text text-anchor="middle" x="1514.7" y="-138.3" font-family="Times,serif" font-size="14.00">J3</text>
</g>
<!-- c14 -->
<g id="node11" class="node">
<title>c14</title>
<polygon fill="none" stroke="black" points="466.68,-166 466.68,-212 571.68,-212 571.68,-166 466.68,-166"/>
<text text-anchor="middle" x="480.18" y="-196.8" font-family="Times,serif" font-size="14.00">A</text>
<polyline fill="none" stroke="black" points="466.68,-189 493.68,-189 "/>
<text text-anchor="middle" x="480.18" y="-173.8" font-family="Times,serif" font-size="14.00">B</text>
<polyline fill="none" stroke="black" points="493.68,-166 493.68,-212 "/>
<text text-anchor="middle" x="519.68" y="-192.8" font-family="Times,serif" font-size="14.00">$1</text>
<text text-anchor="middle" x="519.68" y="-177.8" font-family="Times,serif" font-size="14.00">$and</text>
<polyline fill="none" stroke="black" points="545.68,-166 545.68,-212 "/>
<text text-anchor="middle" x="558.68" y="-185.3" font-family="Times,serif" font-size="14.00">Y</text>
</g>
<!-- n6&#45;&gt;c14 -->
<g id="edge14" class="edge">
<title>n6:e&#45;&gt;c14:w</title>
<path fill="none" stroke="black" d="M1544.7,-142C1565.61,-142 1562.38,-179.74 1486.2,-160 1468.49,-155.41 1467.92,-144.59 1450.2,-140 1385.24,-123.17 1366.31,-138.97 1299.2,-140 1293.42,-140.09 470.38,-161.52 466.18,-165.5 465.83,-165.83 465.49,-166.2 465.17,-166.6"/>
<polygon fill="black" stroke="black" points="461.67,-167 465.18,-177 468.67,-167 461.67,-167"/>
</g>
<!-- n7 -->
<g id="node7" class="node">
<title>n7</title>
<polygon fill="none" stroke="black" points="386.9,-187.54 386.9,-202.46 371.09,-213 348.72,-213 332.9,-202.46 332.9,-187.54 348.72,-177 371.09,-177 386.9,-187.54"/>
<text text-anchor="middle" x="359.9" y="-191.3" font-family="Times,serif" font-size="14.00">Qa</text>
</g>
<!-- n7&#45;&gt;c14 -->
<g id="edge16" class="edge">
<title>n7:e&#45;&gt;c14:w</title>
<path fill="none" stroke="black" d="M387.9,-195C419.31,-195 429.47,-199.8 456.39,-200.81"/>
<polygon fill="black" stroke="black" points="456.62,-204.32 466.68,-201 456.74,-197.32 456.62,-204.32"/>
</g>
<!-- c15 -->
<g id="node12" class="node">
<title>c15</title>
<polygon fill="none" stroke="black" points="1065.22,-184 1065.22,-230 1170.22,-230 1170.22,-184 1065.22,-184"/>
<text text-anchor="middle" x="1078.72" y="-214.8" font-family="Times,serif" font-size="14.00">A</text>
<polyline fill="none" stroke="black" points="1065.22,-207 1092.22,-207 "/>
<text text-anchor="middle" x="1078.72" y="-191.8" font-family="Times,serif" font-size="14.00">B</text>
<polyline fill="none" stroke="black" points="1092.22,-184 1092.22,-230 "/>
<text text-anchor="middle" x="1118.22" y="-210.8" font-family="Times,serif" font-size="14.00">$2</text>
<text text-anchor="middle" x="1118.22" y="-195.8" font-family="Times,serif" font-size="14.00">$and</text>
<polyline fill="none" stroke="black" points="1144.22,-184 1144.22,-230 "/>
<text text-anchor="middle" x="1157.22" y="-203.3" font-family="Times,serif" font-size="14.00">Y</text>
</g>
<!-- n7&#45;&gt;c15 -->
<g id="edge17" class="edge">
<title>n7:e&#45;&gt;c15:w</title>
<path fill="none" stroke="black" d="M387.9,-195C426.97,-195 428.64,-164.9 466.68,-156 512.12,-145.37 525.05,-154.16 571.68,-156 788.11,-164.54 843.47,-194.06 1055.02,-194.98"/>
<polygon fill="black" stroke="black" points="1055.21,-198.48 1065.22,-195 1055.22,-191.48 1055.21,-198.48"/>
</g>
<!-- n7&#45;&gt;c21 -->
<g id="edge18" class="edge">
<title>n7:e&#45;&gt;c21:w</title>
<path fill="none" stroke="black" d="M387.9,-195C424.91,-195 430.62,-213.68 466.68,-222 565.4,-244.78 593.99,-250.62 690.48,-250.98"/>
<polygon fill="black" stroke="black" points="690.66,-254.48 700.67,-251 690.67,-247.48 690.66,-254.48"/>
</g>
<!-- n7&#45;&gt;c22 -->
<g id="edge19" class="edge">
<title>n7:e&#45;&gt;c22:w</title>
<path fill="none" stroke="black" d="M387.9,-195C428.9,-195 429.12,-163.43 466.68,-147 538.02,-115.79 557.31,-99 635.17,-99 635.17,-99 635.17,-99 959.44,-99 1034.03,-99 1206.5,-176.25 1289.11,-182.59"/>
<polygon fill="black" stroke="black" points="1289.07,-186.09 1299.2,-183 1289.36,-179.09 1289.07,-186.09"/>
</g>
<!-- n8 -->
<g id="node8" class="node">
<title>n8</title>
<polygon fill="none" stroke="black" points="985.44,-278.54 985.44,-293.46 969.63,-304 947.26,-304 931.44,-293.46 931.44,-278.54 947.26,-268 969.63,-268 985.44,-278.54"/>
<text text-anchor="middle" x="958.44" y="-282.3" font-family="Times,serif" font-size="14.00">Qb</text>
</g>
<!-- n8&#45;&gt;c15 -->
<g id="edge21" class="edge">
<title>n8:e&#45;&gt;c15:w</title>
<path fill="none" stroke="black" d="M986.44,-286C1008.92,-286 1012.03,-273.49 1029.22,-259 1044.36,-246.23 1042.71,-227.18 1055.28,-221.01"/>
<polygon fill="black" stroke="black" points="1056.11,-224.41 1065.22,-219 1054.72,-217.55 1056.11,-224.41"/>
</g>
<!-- n9 -->
<g id="node9" class="node">
<title>n9</title>
<polygon fill="none" stroke="black" points="1541.7,-210.54 1541.7,-225.46 1525.88,-236 1503.51,-236 1487.7,-225.46 1487.7,-210.54 1503.51,-200 1525.88,-200 1541.7,-210.54"/>
<text text-anchor="middle" x="1514.7" y="-214.3" font-family="Times,serif" font-size="14.00">Qc</text>
</g>
<!-- n10 -->
<g id="node10" class="node">
<title>n10</title>
<polygon fill="none" stroke="black" points="65.29,-53.54 65.29,-68.46 46.41,-79 19.72,-79 0.84,-68.46 0.84,-53.54 19.72,-43 46.41,-43 65.29,-53.54"/>
<text text-anchor="middle" x="33.06" y="-57.3" font-family="Times,serif" font-size="14.00">RST</text>
</g>
<!-- n10&#45;&gt;c20 -->
<g id="edge2" class="edge">
<title>n10:e&#45;&gt;c20:w</title>
<path fill="none" stroke="black" d="M66.06,-61C97.66,-61 73.68,-117.11 92.25,-130.27"/>
<polygon fill="black" stroke="black" points="91.56,-133.7 102.13,-133 93.43,-126.96 91.56,-133.7"/>
</g>
<!-- n10&#45;&gt;c21 -->
<g id="edge3" class="edge">
<title>n10:e&#45;&gt;c21:w</title>
<path fill="none" stroke="black" d="M66.06,-61C294.71,-61 361.02,-67.11 571.68,-156 628.86,-180.13 634.53,-222.98 690.44,-227.59"/>
<polygon fill="black" stroke="black" points="690.54,-231.1 700.67,-228 690.81,-224.11 690.54,-231.1"/>
</g>
<!-- n10&#45;&gt;c22 -->
<g id="edge4" class="edge">
<title>n10:e&#45;&gt;c22:w</title>
<path fill="none" stroke="black" d="M66.06,-61C98.87,-61 326.09,-23 358.9,-23 358.9,-23 358.9,-23 1118.72,-23 1215.88,-23 1199.82,-150.54 1289.02,-159.5"/>
<polygon fill="black" stroke="black" points="1289.05,-163.01 1299.2,-160 1289.39,-156.02 1289.05,-163.01"/>
</g>
<!-- c14&#45;&gt;n4 -->
<g id="edge9" class="edge">
<title>c14:e&#45;&gt;n4:w</title>
<path fill="none" stroke="black" d="M571.68,-189C618.32,-189 566.56,-280.78 597.83,-295.13"/>
<polygon fill="black" stroke="black" points="597.2,-298.57 607.68,-297 598.51,-291.69 597.2,-298.57"/>
</g>
<!-- c15&#45;&gt;n5 -->
<g id="edge11" class="edge">
<title>c15:e&#45;&gt;n5:w</title>
<path fill="none" stroke="black" d="M1170.22,-207C1182.22,-207 1187.47,-207 1196.09,-207"/>
<polygon fill="black" stroke="black" points="1196.22,-210.5 1206.22,-207 1196.22,-203.5 1196.22,-210.5"/>
</g>
<!-- v0 -->
<g id="node13" class="node">
<title>v0</title>
<ellipse fill="none" stroke="black" cx="33.06" cy="-195" rx="27" ry="18"/>
<text text-anchor="middle" x="33.06" y="-191.3" font-family="Times,serif" font-size="14.00">1&#39;1</text>
</g>
<!-- v0&#45;&gt;c20 -->
<g id="edge23" class="edge">
<title>v0:e&#45;&gt;c20:w</title>
<path fill="none" stroke="black" d="M61.06,-195C76.55,-195 81.09,-185.47 92.13,-181.61"/>
<polygon fill="black" stroke="black" points="92.81,-185.04 102.13,-180 91.7,-178.13 92.81,-185.04"/>
</g>
<!-- v1 -->
<g id="node14" class="node">
<title>v1</title>
<ellipse fill="none" stroke="black" cx="33.06" cy="-141" rx="27" ry="18"/>
<text text-anchor="middle" x="33.06" y="-137.3" font-family="Times,serif" font-size="14.00">1&#39;1</text>
</g>
<!-- v1&#45;&gt;c20 -->
<g id="edge24" class="edge">
<title>v1:e&#45;&gt;c20:w</title>
<path fill="none" stroke="black" d="M61.06,-141C76.55,-141 81.09,-150.53 92.13,-154.39"/>
<polygon fill="black" stroke="black" points="91.7,-157.87 102.13,-156 92.81,-150.96 91.7,-157.87"/>
</g>
<!-- c20&#45;&gt;n1 -->
<g id="edge1" class="edge">
<title>c20:e&#45;&gt;n1:w</title>
<path fill="none" stroke="black" d="M253.13,-145C265.2,-145 270.36,-142.75 278.98,-141.62"/>
<polygon fill="black" stroke="black" points="279.36,-145.11 289.13,-141 278.93,-138.12 279.36,-145.11"/>
</g>
<!-- c20&#45;&gt;n7 -->
<g id="edge15" class="edge">
<title>c20:e&#45;&gt;n7:w</title>
<path fill="none" stroke="black" d="M253.13,-191C284.49,-191 294.73,-194.2 321.63,-194.88"/>
<polygon fill="black" stroke="black" points="321.86,-198.38 331.9,-195 321.95,-191.38 321.86,-198.38"/>
</g>
<!-- c21&#45;&gt;n2 -->
<g id="edge5" class="edge">
<title>c21:e&#45;&gt;n2:w</title>
<path fill="none" stroke="black" d="M851.67,-240C864.09,-240 868.94,-235.41 877.7,-233.18"/>
<polygon fill="black" stroke="black" points="878.15,-236.65 887.67,-232 877.32,-229.7 878.15,-236.65"/>
</g>
<!-- c21&#45;&gt;n8 -->
<g id="edge20" class="edge">
<title>c21:e&#45;&gt;n8:w</title>
<path fill="none" stroke="black" d="M851.67,-286C882.98,-286 893.29,-286 920.18,-286"/>
<polygon fill="black" stroke="black" points="920.44,-289.5 930.44,-286 920.44,-282.5 920.44,-289.5"/>
</g>
<!-- c22&#45;&gt;n6 -->
<g id="edge13" class="edge">
<title>c22:e&#45;&gt;n6:w</title>
<path fill="none" stroke="black" d="M1450.2,-172C1466.96,-172 1466.58,-152.57 1476.64,-144.99"/>
<polygon fill="black" stroke="black" points="1477.7,-148.32 1486.2,-142 1475.62,-141.64 1477.7,-148.32"/>
</g>
<!-- c22&#45;&gt;n9 -->
<g id="edge22" class="edge">
<title>c22:e&#45;&gt;n9:w</title>
<path fill="none" stroke="black" d="M1450.2,-218C1462.37,-218 1467.69,-218 1476.43,-218"/>
<polygon fill="black" stroke="black" points="1476.7,-221.5 1486.7,-218 1476.7,-214.5 1476.7,-221.5"/>
</g>
</g>
</svg>
