<svg xmlns="http://www.w3.org/2000/svg" xmlns:xlink="http://www.w3.org/1999/xlink" xmlns:s="https://github.com/nturley/netlistsvg" width="1048" height="562.5">
  <style>svg {
    stroke:#000;
    fill:none;
  }
  text {
    fill:#000;
    stroke:none;
    font-size:10px;
    font-weight: bold;
    font-family: "Courier New", monospace;
  }
  .nodelabel {
    text-anchor: middle;
  }
  .inputPortLabel {
    text-anchor: end;
  }
  .splitjoinBody {
    fill:#000;
  }</style>
  <g s:type="generic" transform="translate(289,489.5)" s:width="30" s:height="40" id="cell_$auto$opt_reduce.cc:128:opt_pmux$47">
    <text x="15" y="-4" class="nodelabel cell_$auto$opt_reduce.cc:128:opt_pmux$47" s:attribute="ref">$reduce_or</text>
    <rect width="30" height="20" s:generic="body" class="cell_$auto$opt_reduce.cc:128:opt_pmux$47"/>
    <g transform="translate(0,10)" s:x="0" s:y="10" s:pid="in0" id="port_$auto$opt_reduce.cc:128:opt_pmux$47~A">
      <text x="-3" y="-4" class="inputPortLabel cell_$auto$opt_reduce.cc:128:opt_pmux$47">A</text>
    </g>
    <g transform="translate(30,10)" s:x="30" s:y="10" s:pid="out0" id="port_$auto$opt_reduce.cc:128:opt_pmux$47~Y">
      <text x="5" y="-4" style="fill:#000; stroke:none" class="cell_$auto$opt_reduce.cc:128:opt_pmux$47">Y</text>
    </g>
  </g>
  <g s:type="generic" transform="translate(541,244)" s:width="30" s:height="40" id="cell_$auto$opt_reduce.cc:128:opt_pmux$49">
    <text x="15" y="-4" class="nodelabel cell_$auto$opt_reduce.cc:128:opt_pmux$49" s:attribute="ref">$reduce_or</text>
    <rect width="30" height="20" s:generic="body" class="cell_$auto$opt_reduce.cc:128:opt_pmux$49"/>
    <g transform="translate(0,10)" s:x="0" s:y="10" s:pid="in0" id="port_$auto$opt_reduce.cc:128:opt_pmux$49~A">
      <text x="-3" y="-4" class="inputPortLabel cell_$auto$opt_reduce.cc:128:opt_pmux$49">A</text>
    </g>
    <g transform="translate(30,10)" s:x="30" s:y="10" s:pid="out0" id="port_$auto$opt_reduce.cc:128:opt_pmux$49~Y">
      <text x="5" y="-4" style="fill:#000; stroke:none" class="cell_$auto$opt_reduce.cc:128:opt_pmux$49">Y</text>
    </g>
  </g>
  <g s:type="dff" transform="translate(931,360.5)" s:width="30" s:height="40" id="cell_$procdff$45">
    <s:alias val="$dff"/>
    <s:alias val="$_DFF_"/>
    <s:alias val="$_DFF_P_"/>
    <rect width="30" height="40" x="0" y="0" class="cell_$procdff$45"/>
    <path d="M0,35 L5,30 L0,25" class="cell_$procdff$45"/>
    <g s:x="30" s:y="10" s:pid="Q"/>
    <g s:x="0" s:y="30" s:pid="CLK"/>
    <g s:x="0" s:y="30" s:pid="C"/>
    <g s:x="0" s:y="10" s:pid="D"/>
  </g>
  <g s:type="dff" transform="translate(996,43)" s:width="30" s:height="40" id="cell_$procdff$46">
    <s:alias val="$dff"/>
    <s:alias val="$_DFF_"/>
    <s:alias val="$_DFF_P_"/>
    <rect width="30" height="40" x="0" y="0" class="cell_$procdff$46"/>
    <path d="M0,35 L5,30 L0,25" class="cell_$procdff$46"/>
    <g s:x="30" s:y="10" s:pid="Q"/>
    <g s:x="0" s:y="30" s:pid="CLK"/>
    <g s:x="0" s:y="30" s:pid="C"/>
    <g s:x="0" s:y="10" s:pid="D"/>
  </g>
  <g s:type="mux" transform="translate(806,340.5)" s:width="20" s:height="40" id="cell_$procmux$11">
    <s:alias val="$pmux"/>
    <s:alias val="$mux"/>
    <s:alias val="$_MUX_"/>
    <path d="M0,0 L20,10 L20,30 L0,40 Z" class="cell_$procmux$11"/>
    <g s:x="0" s:y="10" s:pid="A"/>
    <g s:x="0" s:y="30" s:pid="B"/>
    <g s:x="10" s:y="35" s:pid="S"/>
    <g s:x="20" s:y="20" s:pid="Y"/>
  </g>
  <g s:type="eq" transform="translate(214.66666666666666,232)" s:width="25" s:height="25" id="cell_$procmux$12_CMP0">
    <s:alias val="$eq"/>
    <circle r="12.5" cx="12.5" cy="12.5" class="cell_$procmux$12_CMP0"/>
    <line x1="7.5" x2="17.5" y1="10" y2="10" class="cell_$procmux$12_CMP0"/>
    <line x1="7.5" x2="17.5" y1="15" y2="15" class="cell_$procmux$12_CMP0"/>
    <g s:x="3" s:y="5" s:pid="A"/>
    <g s:x="3" s:y="20" s:pid="B"/>
    <g s:x="25" s:y="12.5" s:pid="Y"/>
  </g>
  <g s:type="eq" transform="translate(145.33333333333331,477.5)" s:width="25" s:height="25" id="cell_$procmux$15_CMP0">
    <s:alias val="$eq"/>
    <circle r="12.5" cx="12.5" cy="12.5" class="cell_$procmux$15_CMP0"/>
    <line x1="7.5" x2="17.5" y1="10" y2="10" class="cell_$procmux$15_CMP0"/>
    <line x1="7.5" x2="17.5" y1="15" y2="15" class="cell_$procmux$15_CMP0"/>
    <g s:x="3" s:y="5" s:pid="A"/>
    <g s:x="3" s:y="20" s:pid="B"/>
    <g s:x="25" s:y="12.5" s:pid="Y"/>
  </g>
  <g s:type="eq" transform="translate(145.33333333333331,254.5)" s:width="25" s:height="25" id="cell_$procmux$18_CMP0">
    <s:alias val="$eq"/>
    <circle r="12.5" cx="12.5" cy="12.5" class="cell_$procmux$18_CMP0"/>
    <line x1="7.5" x2="17.5" y1="10" y2="10" class="cell_$procmux$18_CMP0"/>
    <line x1="7.5" x2="17.5" y1="15" y2="15" class="cell_$procmux$18_CMP0"/>
    <g s:x="3" s:y="5" s:pid="A"/>
    <g s:x="3" s:y="20" s:pid="B"/>
    <g s:x="25" s:y="12.5" s:pid="Y"/>
  </g>
  <g s:type="not" transform="translate(142,422.5)" s:width="30" s:height="20" id="cell_$procmux$21_CMP0">
    <s:alias val="$_NOT_"/>
    <s:alias val="$not"/>
    <s:alias val="$logic_not"/>
    <path d="M0,0 L0,20 L20,10 Z" class="cell_$procmux$21_CMP0"/>
    <circle cx="23" cy="10" r="3" class="cell_$procmux$21_CMP0"/>
    <g s:x="0" s:y="10" s:pid="A"/>
    <g s:x="25" s:y="10" s:pid="Y"/>
  </g>
  <g s:type="mux" transform="translate(869.3333333333334,350.5)" s:width="20" s:height="40" id="cell_$procmux$23">
    <s:alias val="$pmux"/>
    <s:alias val="$mux"/>
    <s:alias val="$_MUX_"/>
    <path d="M0,0 L20,10 L20,30 L0,40 Z" class="cell_$procmux$23"/>
    <g s:x="0" s:y="10" s:pid="A"/>
    <g s:x="0" s:y="30" s:pid="B"/>
    <g s:x="10" s:y="35" s:pid="S"/>
    <g s:x="20" s:y="20" s:pid="Y"/>
  </g>
  <g s:type="mux" transform="translate(602,23)" s:width="20" s:height="40" id="cell_$procmux$26">
    <s:alias val="$pmux"/>
    <s:alias val="$mux"/>
    <s:alias val="$_MUX_"/>
    <path d="M0,0 L20,10 L20,30 L0,40 Z" class="cell_$procmux$26"/>
    <g s:x="0" s:y="10" s:pid="A"/>
    <g s:x="0" s:y="30" s:pid="B"/>
    <g s:x="10" s:y="35" s:pid="S"/>
    <g s:x="20" s:y="20" s:pid="Y"/>
  </g>
  <g s:type="mux" transform="translate(871,23)" s:width="20" s:height="40" id="cell_$procmux$28">
    <s:alias val="$pmux"/>
    <s:alias val="$mux"/>
    <s:alias val="$_MUX_"/>
    <path d="M0,0 L20,10 L20,30 L0,40 Z" class="cell_$procmux$28"/>
    <g s:x="0" s:y="10" s:pid="A"/>
    <g s:x="0" s:y="30" s:pid="B"/>
    <g s:x="10" s:y="35" s:pid="S"/>
    <g s:x="20" s:y="20" s:pid="Y"/>
  </g>
  <g s:type="mux" transform="translate(602,126)" s:width="20" s:height="40" id="cell_$procmux$31">
    <s:alias val="$pmux"/>
    <s:alias val="$mux"/>
    <s:alias val="$_MUX_"/>
    <path d="M0,0 L20,10 L20,30 L0,40 Z" class="cell_$procmux$31"/>
    <g s:x="0" s:y="10" s:pid="A"/>
    <g s:x="0" s:y="30" s:pid="B"/>
    <g s:x="10" s:y="35" s:pid="S"/>
    <g s:x="20" s:y="20" s:pid="Y"/>
  </g>
  <g s:type="mux" transform="translate(350,340.5)" s:width="20" s:height="40" id="cell_$procmux$39">
    <s:alias val="$pmux"/>
    <s:alias val="$mux"/>
    <s:alias val="$_MUX_"/>
    <path d="M0,0 L20,10 L20,30 L0,40 Z" class="cell_$procmux$39"/>
    <g s:x="0" s:y="10" s:pid="A"/>
    <g s:x="0" s:y="30" s:pid="B"/>
    <g s:x="10" s:y="35" s:pid="S"/>
    <g s:x="20" s:y="20" s:pid="Y"/>
  </g>
  <g s:type="mux" transform="translate(934.3333333333334,33)" s:width="20" s:height="40" id="cell_$procmux$43">
    <s:alias val="$pmux"/>
    <s:alias val="$mux"/>
    <s:alias val="$_MUX_"/>
    <path d="M0,0 L20,10 L20,30 L0,40 Z" class="cell_$procmux$43"/>
    <g s:x="0" s:y="10" s:pid="A"/>
    <g s:x="0" s:y="30" s:pid="B"/>
    <g s:x="10" s:y="35" s:pid="S"/>
    <g s:x="20" s:y="20" s:pid="Y"/>
  </g>
  <g s:type="outputExt" transform="translate(996,360.5)" s:width="30" s:height="20" id="cell_dout">
    <text x="15" y="-4" class="nodelabel cell_dout" s:attribute="ref">dout</text>
    <s:alias val="$_outputExt_"/>
    <path d="M30,0 L30,20 L15,20 L0,10 L15,0 Z" class="cell_dout"/>
    <g s:x="0" s:y="10" s:pid="A"/>
  </g>
  <g s:type="inputExt" transform="translate(212,177)" s:width="30" s:height="20" id="cell_din">
    <text x="15" y="-4" class="nodelabel cell_din" s:attribute="ref">din</text>
    <s:alias val="$_inputExt_"/>
    <path d="M0,0 L0,20 L15,20 L30,10 L15,0 Z" class="cell_din"/>
    <g s:x="28" s:y="10" s:pid="Y"/>
  </g>
  <g s:type="inputExt" transform="translate(801,486)" s:width="30" s:height="20" id="cell_rst">
    <text x="15" y="-4" class="nodelabel cell_rst" s:attribute="ref">rst</text>
    <s:alias val="$_inputExt_"/>
    <path d="M0,0 L0,20 L15,20 L30,10 L15,0 Z" class="cell_rst"/>
    <g s:x="28" s:y="10" s:pid="Y"/>
  </g>
  <g s:type="inputExt" transform="translate(866,295.5)" s:width="30" s:height="20" id="cell_clk">
    <text x="15" y="-4" class="nodelabel cell_clk" s:attribute="ref">clk</text>
    <s:alias val="$_inputExt_"/>
    <path d="M0,0 L0,20 L15,20 L30,10 L15,0 Z" class="cell_clk"/>
    <g s:x="28" s:y="10" s:pid="Y"/>
  </g>
  <g s:type="constant" transform="translate(212,391.5)" s:width="30" s:height="20" id="cell_0">
    <text x="15" y="-4" class="nodelabel cell_0" s:attribute="ref">0</text>
    <s:alias val="$_constant_"/>
    <rect width="30" height="20" class="cell_0"/>
    <g s:x="30" s:y="10" s:pid="Y"/>
  </g>
  <g s:type="constant" transform="translate(142,146)" s:width="30" s:height="20" id="cell_11">
    <text x="15" y="-4" class="nodelabel cell_11" s:attribute="ref">11</text>
    <s:alias val="$_constant_"/>
    <rect width="30" height="20" class="cell_11"/>
    <g s:x="30" s:y="10" s:pid="Y"/>
  </g>
  <g s:type="constant" transform="translate(72,23)" s:width="30" s:height="20" id="cell_10">
    <text x="15" y="-4" class="nodelabel cell_10" s:attribute="ref">10</text>
    <s:alias val="$_constant_"/>
    <rect width="30" height="20" class="cell_10"/>
    <g s:x="30" s:y="10" s:pid="Y"/>
  </g>
  <g s:type="constant" transform="translate(72,264.5)" s:width="30" s:height="20" id="cell_1">
    <text x="15" y="-4" class="nodelabel cell_1" s:attribute="ref">1</text>
    <s:alias val="$_constant_"/>
    <rect width="30" height="20" class="cell_1"/>
    <g s:x="30" s:y="10" s:pid="Y"/>
  </g>
  <g s:type="constant" transform="translate(289,54)" s:width="30" s:height="20" id="cell_01">
    <text x="15" y="-4" class="nodelabel cell_01" s:attribute="ref">01</text>
    <s:alias val="$_constant_"/>
    <rect width="30" height="20" class="cell_01"/>
    <g s:x="30" s:y="10" s:pid="Y"/>
  </g>
  <g s:type="constant" transform="translate(289,105)" s:width="30" s:height="20" id="cell_00">
    <text x="15" y="-4" class="nodelabel cell_00" s:attribute="ref">00</text>
    <s:alias val="$_constant_"/>
    <rect width="30" height="20" class="cell_00"/>
    <g s:x="30" s:y="10" s:pid="Y"/>
  </g>
  <g s:type="join" transform="translate(222,479.5)" s:width="4" s:height="40" id="cell_$join$,6,7,8,">
    <rect width="5" height="60" class="splitjoinBody" s:generic="body"/>
    <s:alias val="$_join_"/>
    <g s:x="5" s:y="20" s:pid="out"/>
    <g transform="translate(0,10)" s:x="0" s:y="10" s:pid="in0">
      <text x="-3" y="-4" class="inputPortLabel">0</text>
    </g>
    <g transform="translate(0,30)" s:x="0" s:y="10" s:pid="in0">
      <text x="-3" y="-4" class="inputPortLabel">1</text>
    </g>
    <g transform="translate(0,50)" s:x="0" s:y="10" s:pid="in0">
      <text x="-3" y="-4" class="inputPortLabel">2</text>
    </g>
  </g>
  <g s:type="join" transform="translate(355.3333333333333,234)" s:width="4" s:height="40" id="cell_$join$,10,7,">
    <rect width="5" height="40" class="splitjoinBody" s:generic="body"/>
    <s:alias val="$_join_"/>
    <g s:x="5" s:y="20" s:pid="out"/>
    <g transform="translate(0,10)" s:x="0" s:y="10" s:pid="in0">
      <text x="-3" y="-4" class="inputPortLabel">0</text>
    </g>
    <g transform="translate(0,30)" s:x="0" s:y="10" s:pid="in0">
      <text x="-3" y="-4" class="inputPortLabel">1</text>
    </g>
  </g>
  <g s:type="join" transform="translate(607.3333333333334,350)" s:width="4" s:height="40" id="cell_$join$,17,25,">
    <rect width="5" height="40" class="splitjoinBody" s:generic="body"/>
    <s:alias val="$_join_"/>
    <g s:x="5" s:y="20" s:pid="out"/>
    <g transform="translate(0,10)" s:x="0" s:y="10" s:pid="in0">
      <text x="-3" y="-4" class="inputPortLabel">0</text>
    </g>
    <g transform="translate(0,30)" s:x="0" s:y="10" s:pid="in0">
      <text x="-3" y="-4" class="inputPortLabel">1</text>
    </g>
  </g>
  <g s:type="join" transform="translate(607.3333333333334,445.5)" s:width="4" s:height="40" id="cell_$join$,10,9,">
    <rect width="5" height="40" class="splitjoinBody" s:generic="body"/>
    <s:alias val="$_join_"/>
    <g s:x="5" s:y="20" s:pid="out"/>
    <g transform="translate(0,10)" s:x="0" s:y="10" s:pid="in0">
      <text x="-3" y="-4" class="inputPortLabel">0</text>
    </g>
    <g transform="translate(0,30)" s:x="0" s:y="10" s:pid="in0">
      <text x="-3" y="-4" class="inputPortLabel">1</text>
    </g>
  </g>
  <g s:type="join" transform="translate(54,14)" s:width="4" s:height="40" id="cell_$join$,x,x,">
    <rect width="5" height="40" class="splitjoinBody" s:generic="body"/>
    <s:alias val="$_join_"/>
    <g s:x="5" s:y="20" s:pid="out"/>
    <g transform="translate(0,10)" s:x="0" s:y="10" s:pid="in0">
      <text x="-3" y="-4" class="inputPortLabel">0</text>
    </g>
    <g transform="translate(0,30)" s:x="0" s:y="10" s:pid="in0">
      <text x="-3" y="-4" class="inputPortLabel">1</text>
    </g>
  </g>
  <g s:type="join" transform="translate(820,32.5)" s:width="4" s:height="40" id="cell_$join$,19,20,21,22,17,25,">
    <rect width="5" height="60" class="splitjoinBody" s:generic="body"/>
    <s:alias val="$_join_"/>
    <g s:x="5" s:y="20" s:pid="out"/>
    <g transform="translate(0,10)" s:x="0" s:y="10" s:pid="in0">
      <text x="-3" y="-4" class="inputPortLabel">0:1</text>
    </g>
    <g transform="translate(0,30)" s:x="0" s:y="10" s:pid="in0">
      <text x="-3" y="-4" class="inputPortLabel">2:3</text>
    </g>
    <g transform="translate(0,50)" s:x="0" s:y="10" s:pid="in0">
      <text x="-3" y="-4" class="inputPortLabel">4:5</text>
    </g>
  </g>
  <g s:type="join" transform="translate(817,244)" s:width="4" s:height="40" id="cell_$join$,11,6,8,">
    <rect width="5" height="60" class="splitjoinBody" s:generic="body"/>
    <s:alias val="$_join_"/>
    <g s:x="5" s:y="20" s:pid="out"/>
    <g transform="translate(0,10)" s:x="0" s:y="10" s:pid="in0">
      <text x="-3" y="-4" class="inputPortLabel">0</text>
    </g>
    <g transform="translate(0,30)" s:x="0" s:y="10" s:pid="in0">
      <text x="-3" y="-4" class="inputPortLabel">1</text>
    </g>
    <g transform="translate(0,50)" s:x="0" s:y="10" s:pid="in0">
      <text x="-3" y="-4" class="inputPortLabel">2</text>
    </g>
  </g>
  <line x1="228" x2="289" y1="500" y2="500" class="net_6,7,8"/>
  <line x1="361.3333333333333" x2="541" y1="254.5" y2="254.5" class="net_10,7"/>
  <line x1="894" x2="906" y1="305.5" y2="305.5" class="net_5"/>
  <line x1="906" x2="906" y1="305.5" y2="390.5" class="net_5"/>
  <circle cx="906" cy="305.5" r="2" style="fill:#000" class="net_5"/>
  <line x1="906" x2="931" y1="390.5" y2="390.5" class="net_5"/>
  <line x1="894" x2="971" y1="305.5" y2="305.5" class="net_5"/>
  <line x1="971" x2="971" y1="305.5" y2="73" class="net_5"/>
  <line x1="971" x2="996" y1="73" y2="73" class="net_5"/>
  <line x1="889.3333333333334" x2="931" y1="370.5" y2="370.5" class="net_12"/>
  <line x1="954.3333333333334" x2="996" y1="53" y2="53" class="net_13,14"/>
  <line x1="613.3333333333334" x2="806" y1="370.5" y2="370.5" class="net_17,25"/>
  <line x1="613.3333333333334" x2="771" y1="370.5" y2="370.5" class="net_17,25"/>
  <line x1="771" x2="771" y1="370.5" y2="83" class="net_17,25"/>
  <circle cx="771" cy="370.5" r="2" style="fill:#000" class="net_17,25"/>
  <line x1="771" x2="820" y1="83" y2="83" class="net_17,25"/>
  <line x1="613.3333333333334" x2="816" y1="466" y2="466" class="net_10,9"/>
  <line x1="816" x2="816" y1="466" y2="375.5" class="net_10,9"/>
  <line x1="1026" x2="1036" y1="53" y2="53" class="net_15,16"/>
  <line x1="1036" x2="1036" y1="53" y2="12" class="net_15,16"/>
  <line x1="1036" x2="192" y1="12" y2="12" class="net_15,16"/>
  <line x1="192" x2="192" y1="12" y2="237" class="net_15,16"/>
  <circle cx="192" cy="12" r="2" style="fill:#000" class="net_15,16"/>
  <circle cx="1036" cy="53" r="2" style="fill:#000" class="net_15,16"/>
  <line x1="192" x2="217.66666666666666" y1="237" y2="237" class="net_15,16"/>
  <line x1="1026" x2="1036" y1="53" y2="53" class="net_15,16"/>
  <line x1="1036" x2="1036" y1="53" y2="549.5" class="net_15,16"/>
  <line x1="1036" x2="132" y1="549.5" y2="549.5" class="net_15,16"/>
  <line x1="132" x2="132" y1="549.5" y2="482.5" class="net_15,16"/>
  <line x1="132" x2="148.33333333333331" y1="482.5" y2="482.5" class="net_15,16"/>
  <line x1="1026" x2="1036" y1="53" y2="53" class="net_15,16"/>
  <line x1="1036" x2="1036" y1="53" y2="12" class="net_15,16"/>
  <line x1="1036" x2="122" y1="12" y2="12" class="net_15,16"/>
  <line x1="122" x2="122" y1="12" y2="259.5" class="net_15,16"/>
  <circle cx="122" cy="259.5" r="2" style="fill:#000" class="net_15,16"/>
  <line x1="122" x2="148.33333333333331" y1="259.5" y2="259.5" class="net_15,16"/>
  <line x1="1026" x2="1036" y1="53" y2="53" class="net_15,16"/>
  <line x1="1036" x2="1036" y1="53" y2="12" class="net_15,16"/>
  <line x1="1036" x2="122" y1="12" y2="12" class="net_15,16"/>
  <line x1="122" x2="122" y1="12" y2="432.5" class="net_15,16"/>
  <line x1="122" x2="142" y1="432.5" y2="432.5" class="net_15,16"/>
  <line x1="172" x2="182" y1="156" y2="156" class="net_26,27"/>
  <line x1="182" x2="182" y1="156" y2="252" class="net_26,27"/>
  <circle cx="182" cy="156" r="2" style="fill:#000" class="net_26,27"/>
  <line x1="182" x2="217.66666666666666" y1="252" y2="252" class="net_26,27"/>
  <line x1="172" x2="602" y1="156" y2="156" class="net_26,27"/>
  <line x1="102" x2="112" y1="33" y2="33" class="net_28,29"/>
  <line x1="112" x2="112" y1="33" y2="497.5" class="net_28,29"/>
  <circle cx="112" cy="33" r="2" style="fill:#000" class="net_28,29"/>
  <line x1="112" x2="148.33333333333331" y1="497.5" y2="497.5" class="net_28,29"/>
  <line x1="102" x2="602" y1="33" y2="33" class="net_28,29"/>
  <line x1="102" x2="148.33333333333331" y1="274.5" y2="274.5" class="net_30"/>
  <line x1="102" x2="132" y1="274.5" y2="274.5" class="net_30"/>
  <line x1="132" x2="132" y1="274.5" y2="370.5" class="net_30"/>
  <circle cx="132" cy="274.5" r="2" style="fill:#000" class="net_30"/>
  <line x1="132" x2="350" y1="370.5" y2="370.5" class="net_30"/>
  <line x1="826" x2="869.3333333333334" y1="360.5" y2="360.5" class="net_18"/>
  <line x1="242" x2="262" y1="401.5" y2="401.5" class="net_25"/>
  <line x1="262" x2="262" y1="401.5" y2="522.5" class="net_25"/>
  <line x1="262" x2="851" y1="522.5" y2="522.5" class="net_25"/>
  <line x1="851" x2="851" y1="522.5" y2="380.5" class="net_25"/>
  <circle cx="262" cy="401.5" r="2" style="fill:#000" class="net_25"/>
  <line x1="851" x2="869.3333333333334" y1="380.5" y2="380.5" class="net_25"/>
  <line x1="242" x2="262" y1="401.5" y2="401.5" class="net_25"/>
  <line x1="262" x2="262" y1="401.5" y2="350.5" class="net_25"/>
  <line x1="262" x2="350" y1="350.5" y2="350.5" class="net_25"/>
  <line x1="242" x2="509" y1="401.5" y2="401.5" class="net_25"/>
  <line x1="509" x2="509" y1="401.5" y2="380.5" class="net_25"/>
  <line x1="509" x2="607.3333333333334" y1="380.5" y2="380.5" class="net_25"/>
  <line x1="829" x2="879.3333333333334" y1="496" y2="496" class="net_4"/>
  <line x1="879.3333333333334" x2="879.3333333333334" y1="496" y2="385.5" class="net_4"/>
  <line x1="829" x2="841" y1="496" y2="496" class="net_4"/>
  <line x1="841" x2="841" y1="496" y2="274.5" class="net_4"/>
  <line x1="841" x2="944.3333333333334" y1="274.5" y2="274.5" class="net_4"/>
  <circle cx="841" cy="496" r="2" style="fill:#000" class="net_4"/>
  <line x1="944.3333333333334" x2="944.3333333333334" y1="274.5" y2="68" class="net_4"/>
  <line x1="319" x2="509" y1="64" y2="64" class="net_34,35"/>
  <line x1="509" x2="509" y1="64" y2="53" class="net_34,35"/>
  <line x1="509" x2="602" y1="53" y2="53" class="net_34,35"/>
  <line x1="240" x2="272" y1="187" y2="187" class="net_3"/>
  <line x1="272" x2="272" y1="187" y2="84" class="net_3"/>
  <line x1="272" x2="612" y1="84" y2="84" class="net_3"/>
  <circle cx="272" cy="187" r="2" style="fill:#000" class="net_3"/>
  <line x1="612" x2="612" y1="84" y2="58" class="net_3"/>
  <line x1="240" x2="612" y1="187" y2="187" class="net_3"/>
  <line x1="612" x2="612" y1="187" y2="161" class="net_3"/>
  <line x1="240" x2="272" y1="187" y2="187" class="net_3"/>
  <line x1="272" x2="272" y1="187" y2="390.5" class="net_3"/>
  <line x1="272" x2="360" y1="390.5" y2="390.5" class="net_3"/>
  <line x1="360" x2="360" y1="390.5" y2="375.5" class="net_3"/>
  <line x1="826" x2="871" y1="53" y2="53" class="net_19,20,21,22,17,25"/>
  <line x1="823" x2="881" y1="264.5" y2="264.5" class="net_11,6,8"/>
  <line x1="881" x2="881" y1="264.5" y2="58" class="net_11,6,8"/>
  <line x1="319" x2="509" y1="115" y2="115" class="net_37,38"/>
  <line x1="509" x2="509" y1="115" y2="136" class="net_37,38"/>
  <circle cx="509" cy="115" r="2" style="fill:#000" class="net_37,38"/>
  <line x1="509" x2="602" y1="136" y2="136" class="net_37,38"/>
  <line x1="319" x2="906" y1="115" y2="115" class="net_37,38"/>
  <line x1="906" x2="906" y1="115" y2="63" class="net_37,38"/>
  <line x1="906" x2="934.3333333333334" y1="63" y2="63" class="net_37,38"/>
  <line x1="891" x2="934.3333333333334" y1="43" y2="43" class="net_23,24"/>
  <line x1="961" x2="996" y1="370.5" y2="370.5" class="net_2"/>
  <line x1="170.33333333333331" x2="222" y1="490" y2="490" class="net_6"/>
  <line x1="170.33333333333331" x2="202" y1="490" y2="490" class="net_6"/>
  <line x1="202" x2="202" y1="490" y2="421.5" class="net_6"/>
  <line x1="202" x2="781" y1="421.5" y2="421.5" class="net_6"/>
  <line x1="781" x2="781" y1="421.5" y2="274.5" class="net_6"/>
  <circle cx="202" cy="490" r="2" style="fill:#000" class="net_6"/>
  <line x1="781" x2="817" y1="274.5" y2="274.5" class="net_6"/>
  <line x1="170.33333333333331" x2="192" y1="267" y2="267" class="net_7"/>
  <line x1="192" x2="192" y1="267" y2="510" class="net_7"/>
  <circle cx="192" cy="267" r="2" style="fill:#000" class="net_7"/>
  <line x1="192" x2="222" y1="510" y2="510" class="net_7"/>
  <line x1="170.33333333333331" x2="262" y1="267" y2="267" class="net_7"/>
  <line x1="262" x2="262" y1="267" y2="264.5" class="net_7"/>
  <line x1="262" x2="355.3333333333333" y1="264.5" y2="264.5" class="net_7"/>
  <line x1="167" x2="182" y1="432.5" y2="432.5" class="net_8"/>
  <line x1="182" x2="182" y1="432.5" y2="530" class="net_8"/>
  <circle cx="182" cy="432.5" r="2" style="fill:#000" class="net_8"/>
  <line x1="182" x2="222" y1="530" y2="530" class="net_8"/>
  <line x1="167" x2="791" y1="432.5" y2="432.5" class="net_8"/>
  <line x1="791" x2="791" y1="432.5" y2="294.5" class="net_8"/>
  <line x1="791" x2="817" y1="294.5" y2="294.5" class="net_8"/>
  <line x1="239.66666666666666" x2="355.3333333333333" y1="244.5" y2="244.5" class="net_10"/>
  <line x1="239.66666666666666" x2="252" y1="244.5" y2="244.5" class="net_10"/>
  <line x1="252" x2="252" y1="244.5" y2="456" class="net_10"/>
  <circle cx="252" cy="244.5" r="2" style="fill:#000" class="net_10"/>
  <line x1="252" x2="607.3333333333334" y1="456" y2="456" class="net_10"/>
  <line x1="370" x2="607.3333333333334" y1="360.5" y2="360.5" class="net_17"/>
  <line x1="320" x2="509" y1="500" y2="500" class="net_9"/>
  <line x1="509" x2="509" y1="500" y2="476" class="net_9"/>
  <line x1="509" x2="607.3333333333334" y1="476" y2="476" class="net_9"/>
  <line x1="22" x2="54" y1="24.5" y2="24.5" class="net_NaN"/>
  <line x1="22" x2="22" y1="24.5" y2="44.5" class="net_NaN"/>
  <line x1="22" x2="54" y1="44.5" y2="44.5" class="net_NaN"/>
  <line x1="622" x2="820" y1="43" y2="43" class="net_19,20"/>
  <line x1="622" x2="761" y1="146" y2="146" class="net_21,22"/>
  <line x1="761" x2="761" y1="146" y2="63" class="net_21,22"/>
  <line x1="761" x2="820" y1="63" y2="63" class="net_21,22"/>
  <line x1="572" x2="817" y1="254.5" y2="254.5" class="net_11"/>
</svg>
